<svg width="1200" height="720" viewBox="0 0 1200 720" fill="none" xmlns="http://www.w3.org/2000/svg">
  <rect width="1200" height="720" rx="12" fill="#07080C"/>
  <rect x="18" y="18" width="1164" height="684" rx="10" fill="#0B0E15" stroke="#1E2535"/>
  <rect x="42" y="42" width="200" height="636" rx="12" fill="#0F1320" stroke="#20283A"/>
  <rect x="266" y="42" width="892" height="76" rx="12" fill="#0F1320" stroke="#20283A"/>
  <rect x="286" y="64" width="220" height="12" rx="6" fill="#E5E7EB" fill-opacity="0.18"/>
  <rect x="286" y="84" width="140" height="8" rx="4" fill="#E5E7EB" fill-opacity="0.1"/>
  <rect x="1032" y="62" width="106" height="36" rx="10" fill="#7B39FC"/>

  <rect x="266" y="142" width="428" height="220" rx="14" fill="#0F1320" stroke="#20283A"/>
  <rect x="714" y="142" width="444" height="220" rx="14" fill="#0F1320" stroke="#20283A"/>
  <rect x="266" y="382" width="892" height="296" rx="14" fill="#0F1320" stroke="#20283A"/>

  <rect x="286" y="164" width="128" height="12" rx="6" fill="#E5E7EB" fill-opacity="0.18"/>
  <rect x="286" y="190" width="388" height="150" rx="12" fill="#0B0E15" stroke="#1A2130"/>
  <path d="M304 314C340 272 364 292 394 250C424 208 458 256 490 232C522 208 560 236 598 208C624 190 648 212 656 220" stroke="#22D3EE" stroke-width="4" stroke-linecap="round"/>
  <path d="M304 326C340 302 376 318 408 292C440 266 470 284 500 272C530 260 566 286 596 266C628 246 642 252 656 246" stroke="#7B39FC" stroke-width="3" stroke-linecap="round" opacity="0.8"/>

  <rect x="734" y="164" width="140" height="12" rx="6" fill="#E5E7EB" fill-opacity="0.18"/>
  <rect x="734" y="190" width="404" height="150" rx="12" fill="#0B0E15" stroke="#1A2130"/>
  <g opacity="0.95">
    <rect x="756" y="292" width="52" height="26" rx="6" fill="#22D3EE" fill-opacity="0.9"/>
    <rect x="816" y="270" width="52" height="48" rx="6" fill="#7B39FC" fill-opacity="0.9"/>
    <rect x="876" y="236" width="52" height="82" rx="6" fill="#22D3EE" fill-opacity="0.65"/>
    <rect x="936" y="250" width="52" height="68" rx="6" fill="#7B39FC" fill-opacity="0.65"/>
    <rect x="996" y="214" width="52" height="104" rx="6" fill="#22D3EE" fill-opacity="0.5"/>
    <rect x="1056" y="262" width="52" height="56" rx="6" fill="#7B39FC" fill-opacity="0.5"/>
  </g>

  <rect x="286" y="404" width="210" height="92" rx="12" fill="#0B0E15" stroke="#1A2130"/>
  <rect x="514" y="404" width="210" height="92" rx="12" fill="#0B0E15" stroke="#1A2130"/>
  <rect x="742" y="404" width="210" height="92" rx="12" fill="#0B0E15" stroke="#1A2130"/>
  <rect x="970" y="404" width="168" height="92" rx="12" fill="#0B0E15" stroke="#1A2130"/>

  <rect x="286" y="520" width="852" height="136" rx="12" fill="#0B0E15" stroke="#1A2130"/>
  <g opacity="0.12">
    <path d="M304 550H1120" stroke="#E5E7EB"/>
    <path d="M304 580H1120" stroke="#E5E7EB"/>
    <path d="M304 610H1120" stroke="#E5E7EB"/>
    <path d="M304 640H1120" stroke="#E5E7EB"/>
  </g>

  <g opacity="0.85">
    <rect x="64" y="72" width="112" height="10" rx="5" fill="#E5E7EB" fill-opacity="0.16"/>
    <rect x="64" y="108" width="154" height="36" rx="10" fill="#111827" stroke="#1F2937"/>
    <rect x="64" y="154" width="154" height="36" rx="10" fill="#111827" stroke="#1F2937"/>
    <rect x="64" y="200" width="154" height="36" rx="10" fill="#111827" stroke="#1F2937"/>
    <rect x="64" y="246" width="154" height="36" rx="10" fill="#111827" stroke="#1F2937"/>
    <rect x="64" y="292" width="154" height="36" rx="10" fill="#0F172A" stroke="#22D3EE" stroke-opacity="0.4"/>
  </g>
</svg>
